<?xml version="1.0" encoding="UTF-8" standalone="no"?>
<!DOCTYPE svg PUBLIC "-//W3C//DTD SVG 1.1//EN" "http://www.w3.org/Graphics/SVG/1.1/DTD/svg11.dtd">
<svg width="100%" height="100%" viewBox="0 0 52 59" version="1.1" xmlns="http://www.w3.org/2000/svg" xmlns:xlink="http://www.w3.org/1999/xlink" xml:space="preserve" xmlns:serif="http://www.serif.com/" style="fill-rule:evenodd;clip-rule:evenodd;stroke-linejoin:round;stroke-miterlimit:2;">
    <g transform="matrix(1,0,0,1,-88.6556,-1085.68)">
        <g transform="matrix(1.27123,0,0,1.27123,-46.5503,-294.464)">
            <path d="M141.947,1085.68L111.081,1085.68C108.478,1085.68 106.359,1087.8 106.359,1090.43L106.359,1121.57C106.359,1124.2 108.478,1126.32 111.081,1126.32L137.202,1126.32L135.981,1122.05L138.93,1124.8L141.717,1127.38L146.67,1131.75L146.67,1090.43C146.67,1087.8 144.55,1085.68 141.947,1085.68ZM133.056,1115.77C133.056,1115.77 132.227,1114.78 131.536,1113.9C134.553,1113.05 135.705,1111.16 135.705,1111.16C134.761,1111.78 133.862,1112.22 133.056,1112.52C131.904,1113 130.799,1113.32 129.716,1113.51C127.505,1113.92 125.478,1113.81 123.75,1113.49C122.437,1113.23 121.308,1112.86 120.364,1112.49C119.834,1112.29 119.258,1112.03 118.682,1111.71C118.613,1111.66 118.544,1111.64 118.475,1111.6C118.429,1111.57 118.406,1111.55 118.383,1111.53C117.968,1111.3 117.738,1111.13 117.738,1111.13C117.738,1111.13 118.844,1112.98 121.769,1113.85C121.078,1114.73 120.226,1115.77 120.226,1115.77C115.135,1115.6 113.2,1112.26 113.2,1112.26C113.2,1104.85 116.517,1098.84 116.517,1098.84C119.834,1096.35 122.99,1096.42 122.99,1096.42L123.22,1096.69C119.074,1097.89 117.162,1099.71 117.162,1099.71C117.162,1099.71 117.669,1099.43 118.521,1099.04C120.986,1097.96 122.944,1097.66 123.75,1097.59C123.888,1097.57 124.003,1097.55 124.142,1097.55C125.547,1097.36 127.136,1097.32 128.795,1097.5C130.983,1097.75 133.332,1098.4 135.728,1099.71C135.728,1099.71 133.908,1097.98 129.992,1096.79L130.315,1096.42C130.315,1096.42 133.471,1096.35 136.788,1098.84C136.788,1098.84 140.105,1104.85 140.105,1112.26C140.105,1112.26 138.147,1115.6 133.056,1115.77ZM122.345,1105.01C121.032,1105.01 119.995,1106.16 119.995,1107.57C119.995,1108.97 121.055,1110.12 122.345,1110.12C123.658,1110.12 124.694,1108.97 124.694,1107.57C124.717,1106.16 123.658,1105.01 122.345,1105.01ZM130.753,1105.01C129.44,1105.01 128.403,1106.16 128.403,1107.57C128.403,1108.97 129.463,1110.12 130.753,1110.12C132.065,1110.12 133.102,1108.97 133.102,1107.57C133.102,1106.16 132.065,1105.01 130.753,1105.01Z" style="fill:rgb(30,30,48);fill-rule:nonzero;"/>
        </g>
    </g>
</svg>
