<?xml version="1.0" encoding="UTF-8" standalone="no"?>
<!DOCTYPE svg PUBLIC "-//W3C//DTD SVG 1.1//EN" "http://www.w3.org/Graphics/SVG/1.1/DTD/svg11.dtd">
<svg width="100%" height="100%" viewBox="0 0 36 30" version="1.1" xmlns="http://www.w3.org/2000/svg" xmlns:xlink="http://www.w3.org/1999/xlink" xml:space="preserve" xmlns:serif="http://www.serif.com/" style="fill-rule:evenodd;clip-rule:evenodd;stroke-linejoin:round;stroke-miterlimit:2;">
    <g transform="matrix(1,0,0,1,-405.299,-60.9365)">
        <g transform="matrix(0.914981,0,0,0.914981,103.108,21.8556)">
            <path d="M349.885,49.201C350.646,49.003 351.141,48.508 351.552,47.931C352.056,47.225 352.459,46.414 352.922,45.679C353.966,44.02 355.271,42.712 357.713,42.712C360.612,42.712 362.877,44.495 362.877,47.394C362.877,50.09 360.918,51.82 358.311,52.049L369.5,52.049L369.5,59.1L366.256,59.1L366.256,74.487L333.515,74.487L333.515,59.1L330.27,59.1L330.27,52.049L341.459,52.049C338.853,51.82 336.894,50.09 336.894,47.394C336.894,44.495 339.158,42.712 342.057,42.712C344.5,42.712 345.805,44.02 346.849,45.679C347.312,46.414 347.715,47.225 348.219,47.931C348.63,48.508 349.125,49.003 349.885,49.201ZM345.81,52.075L345.81,72.105L353.961,72.105L353.961,52.075L345.81,52.075ZM345.787,49.293C345.525,48.907 345.282,48.501 345.044,48.089C344.339,46.868 343.784,45.494 342.057,45.494C340.79,45.494 339.676,46.127 339.676,47.394C339.676,48.66 340.79,49.293 342.057,49.293L345.787,49.293ZM353.984,49.293L357.713,49.293C358.98,49.293 360.094,48.66 360.094,47.394C360.094,46.127 358.98,45.494 357.713,45.494C355.986,45.494 355.432,46.868 354.726,48.089C354.489,48.501 354.246,48.907 353.984,49.293Z" style="fill:white;"/>
        </g>
    </g>
</svg>
