<?xml version="1.0" encoding="UTF-8" standalone="no"?>
<!DOCTYPE svg PUBLIC "-//W3C//DTD SVG 1.1//EN" "http://www.w3.org/Graphics/SVG/1.1/DTD/svg11.dtd">
<svg width="100%" height="100%" viewBox="0 0 238 125" version="1.1" xmlns="http://www.w3.org/2000/svg" xmlns:xlink="http://www.w3.org/1999/xlink" xml:space="preserve" xmlns:serif="http://www.serif.com/" style="fill-rule:evenodd;clip-rule:evenodd;stroke-linejoin:round;stroke-miterlimit:2;">
    <g transform="matrix(1,0,0,1,-718.601,-461.251)">
        <g transform="matrix(-1.07513,-1.31666e-16,1.31666e-16,-1.07513,1413.86,1093.34)">
            <path d="M577.547,511.638L616.899,472.22L646.67,472.22L587.209,530.067L646.67,587.915L616.899,587.915L577.547,548.496C580.056,542.862 581.45,536.626 581.45,530.067C581.45,523.508 580.056,517.273 577.547,511.638ZM546.546,574.24L546.546,587.915L525.569,587.915L525.569,574.24C528.935,575.037 532.447,575.46 536.057,575.46C539.668,575.46 543.18,575.037 546.546,574.24ZM494.568,511.638C492.059,517.273 490.665,523.508 490.665,530.067C490.665,536.626 492.059,542.862 494.568,548.496L455.216,587.915L425.445,587.915L484.906,530.067L425.445,472.22L455.216,472.22L494.568,511.638ZM536.057,495.202C555.3,495.202 570.923,510.824 570.923,530.067C570.923,549.31 555.3,564.933 536.057,564.933C516.815,564.933 501.192,549.31 501.192,530.067C501.192,510.824 516.815,495.202 536.057,495.202ZM546.546,485.895C543.18,485.097 539.668,484.675 536.057,484.675C532.447,484.675 528.935,485.097 525.569,485.895L525.569,472.22L546.546,472.22L546.546,485.895Z" style="fill:white;fill-rule:nonzero;"/>
        </g>
    </g>
</svg>
