<?xml version="1.0" encoding="UTF-8" standalone="no"?>
<!DOCTYPE svg PUBLIC "-//W3C//DTD SVG 1.1//EN" "http://www.w3.org/Graphics/SVG/1.1/DTD/svg11.dtd">
<svg width="100%" height="100%" viewBox="0 0 24 10" version="1.1" xmlns="http://www.w3.org/2000/svg" xmlns:xlink="http://www.w3.org/1999/xlink" xml:space="preserve" xmlns:serif="http://www.serif.com/" style="fill-rule:evenodd;clip-rule:evenodd;stroke-linejoin:round;stroke-miterlimit:2;">
    <g transform="matrix(1,0,0,1,-97.3908,-700.172)">
        <g transform="matrix(1,0,0,1,0,240.463)">
            <g transform="matrix(0.0463063,0,0,0.0463063,97.3908,454.77)">
                <g>
                    <path d="M40.533,213.333C40.533,176.853 70.186,147.2 106.666,147.2C106.666,147.2 146.508,147.2 171.744,147.2C182.931,147.2 192,138.131 192,126.944C192,126.937 192,126.93 192,126.923C192,121.551 189.866,116.399 186.067,112.6C182.268,108.801 177.116,106.667 171.743,106.667C146.507,106.667 106.667,106.667 106.667,106.667C47.787,106.667 0,154.453 0,213.333C0,272.213 47.787,320 106.667,320L171.743,320C177.116,320 182.268,317.866 186.067,314.067C189.866,310.268 192,305.116 192,299.744C192,299.737 192,299.73 192,299.723C192,294.351 189.866,289.199 186.067,285.4C182.268,281.601 177.116,279.467 171.743,279.467C146.507,279.467 106.667,279.467 106.667,279.467C70.187,279.467 40.533,249.813 40.533,213.333Z" style="fill:white;fill-rule:nonzero;"/>
                    <g transform="matrix(1.60596,0,0,1,-89.568,0)">
                        <path d="M298.667,213.314C298.667,201.543 292.725,192 285.395,192C253.553,192 173.114,192 141.272,192C133.942,192 128,201.543 128,213.314C128,213.327 128,213.34 128,213.353C128,225.124 133.942,234.667 141.272,234.667C173.114,234.667 253.553,234.667 285.395,234.667C292.725,234.667 298.667,225.124 298.667,213.353C298.667,213.34 298.667,213.327 298.667,213.314Z" style="fill:white;"/>
                    </g>
                    <g transform="matrix(1,0,0,1,79.4071,0)">
                        <path d="M320,106.667C320,106.667 280.16,106.667 254.924,106.667C249.551,106.667 244.399,108.801 240.6,112.6C236.801,116.399 234.667,121.551 234.667,126.923C234.667,126.93 234.667,126.937 234.667,126.944C234.667,132.316 236.801,137.468 240.6,141.267C244.399,145.066 249.551,147.2 254.924,147.2C280.16,147.2 320,147.2 320,147.2C356.48,147.2 386.133,176.853 386.133,213.333C386.133,249.813 356.48,279.467 320,279.467C320,279.467 280.16,279.467 254.924,279.467C249.551,279.467 244.399,281.601 240.6,285.4C236.801,289.199 234.667,294.351 234.667,299.723C234.667,299.73 234.667,299.737 234.667,299.744C234.667,305.116 236.801,310.268 240.6,314.067C244.399,317.866 249.551,320 254.924,320C280.16,320 320,320 320,320C378.88,320 426.667,272.213 426.667,213.333C426.667,154.453 378.88,106.667 320,106.667Z" style="fill:white;fill-rule:nonzero;"/>
                    </g>
                </g>
            </g>
        </g>
    </g>
</svg>
