<?xml version="1.0" encoding="UTF-8" standalone="no"?>
<!DOCTYPE svg PUBLIC "-//W3C//DTD SVG 1.1//EN" "http://www.w3.org/Graphics/SVG/1.1/DTD/svg11.dtd">
<svg width="100%" height="100%" viewBox="0 0 359 538" version="1.1" xmlns="http://www.w3.org/2000/svg" xmlns:xlink="http://www.w3.org/1999/xlink" xml:space="preserve" xmlns:serif="http://www.serif.com/" style="fill-rule:evenodd;clip-rule:evenodd;stroke-linejoin:round;stroke-miterlimit:2;">
    <g transform="matrix(1,0,0,1,-360.688,-271.032)">
        <g transform="matrix(1,0,0,1,7.6039,55.1601)">
            <path d="M496.534,717.946L460.671,717.946L460.671,753.808L496.534,753.808L496.534,717.946ZM460.671,215.872L424.809,215.872L424.809,251.734L460.671,251.734L460.671,215.872ZM675.846,502.771L675.846,431.046L711.708,431.046L711.708,682.083L675.846,682.083L675.846,717.946L639.983,717.946L639.983,753.808L568.259,753.808L568.259,717.946L532.396,717.946L532.396,574.496L496.534,574.496L496.534,610.358L460.671,610.358L460.671,717.946L388.946,717.946L388.946,682.083L353.084,682.083L353.084,538.634L388.946,538.634L388.946,502.771L424.809,502.771L424.809,466.909L460.671,466.909L460.671,431.046L424.809,431.046L424.809,359.321L460.671,359.321L460.671,395.184L496.534,395.184L496.534,323.459L460.671,323.459L460.671,251.734L532.396,251.734L532.396,287.597L568.259,287.597L568.259,323.459L604.121,323.459L604.121,359.321L639.983,359.321L639.983,502.771L675.846,502.771Z" style="fill:url(#_Linear1);"/>
        </g>
    </g>
    <defs>
        <linearGradient id="_Linear1" x1="0" y1="0" x2="1" y2="0" gradientUnits="userSpaceOnUse" gradientTransform="matrix(481.582,-585.51,585.51,481.582,365.336,847.766)"><stop offset="0" style="stop-color:rgb(60,26,230);stop-opacity:1"/><stop offset="0.5" style="stop-color:rgb(145,26,128);stop-opacity:1"/><stop offset="1" style="stop-color:rgb(230,26,26);stop-opacity:1"/></linearGradient>
    </defs>
</svg>
