<?xml version="1.0" encoding="UTF-8" standalone="no"?>
<!DOCTYPE svg PUBLIC "-//W3C//DTD SVG 1.1//EN" "http://www.w3.org/Graphics/SVG/1.1/DTD/svg11.dtd">
<svg width="100%" height="100%" viewBox="0 0 100 179" version="1.1" xmlns="http://www.w3.org/2000/svg" xmlns:xlink="http://www.w3.org/1999/xlink" xml:space="preserve" xmlns:serif="http://www.serif.com/" style="fill-rule:evenodd;clip-rule:evenodd;stroke-linejoin:round;stroke-miterlimit:2;">
    <g transform="matrix(1,0,0,1,-693.869,-799.598)">
        <g transform="matrix(0.211077,0,0,0.211077,557.175,757.547)">
            <path d="M832.996,759.127C739.836,733.069 693.144,678.534 698.297,603.173C704.764,508.591 807.335,466.158 774.15,352.68C797.708,366.103 817.849,384.537 832.996,410.295C854.359,332.907 819.076,264.55 764.812,199.218C931.817,282.898 1024.14,390.271 992.626,536.928C1025.32,513.077 1042.52,474.963 1047.17,425.317C1104.07,588.312 1047.17,712.503 941.288,759.127C871.825,707.679 862.911,600.561 888.399,536.928C812.026,600.561 787.8,673.59 832.996,759.127Z" style="fill:rgb(30,30,48);"/>
        </g>
        <g transform="matrix(4.54328,0,0,4.54328,-1145.31,-3372.43)">
            <g transform="matrix(13.1063,0,0,13.1063,404.768,946.913)">
                <path d="M0.663,-0.528L0.435,-0.279L0.691,-0L0.517,-0L0.348,-0.184L0.179,-0L0.003,-0L0.26,-0.28L0.033,-0.528L0.207,-0.528L0.347,-0.375L0.488,-0.528L0.663,-0.528Z" style="fill:rgb(79,79,108);fill-rule:nonzero;"/>
            </g>
            <g transform="matrix(13.1063,0,0,13.1063,413.88,946.913)">
                <path d="M0.695,-0L0.052,-0L0.052,-0.235C0.052,-0.247 0.053,-0.26 0.056,-0.273C0.059,-0.287 0.063,-0.3 0.069,-0.313C0.075,-0.327 0.082,-0.34 0.092,-0.352C0.101,-0.364 0.112,-0.374 0.125,-0.384C0.138,-0.393 0.154,-0.4 0.171,-0.406C0.188,-0.411 0.208,-0.414 0.229,-0.414L0.516,-0.414C0.533,-0.414 0.546,-0.418 0.554,-0.427C0.562,-0.436 0.566,-0.448 0.566,-0.465L0.566,-0.521C0.566,-0.538 0.562,-0.551 0.554,-0.56C0.545,-0.569 0.533,-0.573 0.517,-0.573L0.109,-0.573L0.109,-0.7L0.517,-0.7C0.538,-0.7 0.557,-0.697 0.575,-0.692C0.592,-0.686 0.607,-0.679 0.62,-0.67C0.634,-0.66 0.645,-0.65 0.654,-0.638C0.664,-0.626 0.671,-0.613 0.677,-0.6C0.684,-0.587 0.688,-0.573 0.691,-0.56C0.693,-0.546 0.695,-0.534 0.695,-0.522L0.695,-0.465C0.695,-0.432 0.689,-0.404 0.677,-0.382C0.665,-0.359 0.65,-0.341 0.632,-0.326C0.614,-0.312 0.595,-0.302 0.574,-0.296C0.554,-0.289 0.535,-0.286 0.517,-0.286L0.229,-0.286C0.219,-0.286 0.211,-0.285 0.205,-0.282C0.198,-0.279 0.194,-0.275 0.19,-0.27C0.187,-0.265 0.184,-0.26 0.183,-0.253C0.181,-0.247 0.18,-0.241 0.179,-0.235L0.179,-0.127L0.695,-0.127L0.695,-0Z" style="fill:rgb(79,79,108);fill-rule:nonzero;"/>
            </g>
        </g>
        <g transform="matrix(1.88024,0,0,1.88024,-52.9714,-879.813)">
            <g transform="matrix(13.1063,0,0,13.1063,397.101,975.218)">
                <path d="M0.707,-0.573L0.427,-0.573L0.427,-0L0.3,-0L0.3,-0.573L0.02,-0.573L0.02,-0.7L0.707,-0.7L0.707,-0.573Z" style="fill:rgb(79,79,108);fill-rule:nonzero;"/>
            </g>
            <g transform="matrix(13.1063,0,0,13.1063,406.618,975.218)">
                <path d="M0.188,-0.636L0.062,-0.636L0.062,-0.751L0.188,-0.751L0.188,-0.636ZM0.188,-0L0.062,-0L0.062,-0.528L0.188,-0.528L0.188,-0Z" style="fill:rgb(79,79,108);fill-rule:nonzero;"/>
            </g>
            <g transform="matrix(13.1063,0,0,13.1063,409.9,975.218)">
                <path d="M0.571,-0L0.227,-0C0.209,-0 0.19,-0.003 0.169,-0.009C0.148,-0.015 0.129,-0.026 0.111,-0.04C0.093,-0.054 0.079,-0.072 0.067,-0.095C0.055,-0.118 0.049,-0.145 0.049,-0.178L0.049,-0.35C0.049,-0.362 0.05,-0.375 0.053,-0.388C0.056,-0.402 0.06,-0.415 0.066,-0.428C0.072,-0.441 0.079,-0.454 0.089,-0.466C0.098,-0.478 0.109,-0.488 0.122,-0.498C0.135,-0.507 0.151,-0.514 0.168,-0.52C0.185,-0.525 0.205,-0.528 0.227,-0.528L0.571,-0.528L0.571,-0.401L0.227,-0.401C0.21,-0.401 0.197,-0.397 0.189,-0.388C0.18,-0.38 0.176,-0.367 0.176,-0.349L0.176,-0.178C0.176,-0.162 0.18,-0.149 0.189,-0.14C0.198,-0.131 0.211,-0.127 0.228,-0.127L0.571,-0.127L0.571,-0Z" style="fill:rgb(79,79,108);fill-rule:nonzero;"/>
            </g>
            <g transform="matrix(13.1063,0,0,13.1063,417.977,975.218)">
                <path d="M0.68,-0L0.497,-0L0.241,-0.247C0.226,-0.26 0.22,-0.276 0.221,-0.296C0.221,-0.305 0.224,-0.314 0.228,-0.322C0.232,-0.33 0.237,-0.336 0.245,-0.342L0.477,-0.529L0.68,-0.529L0.381,-0.288L0.68,-0ZM0.188,-0L0.062,-0L0.062,-0.751L0.188,-0.751L0.188,-0Z" style="fill:rgb(79,79,108);fill-rule:nonzero;"/>
            </g>
            <g transform="matrix(13.1063,0,0,13.1063,426.814,975.218)">
                <path d="M0.627,-0.353C0.627,-0.335 0.624,-0.316 0.618,-0.296C0.612,-0.276 0.602,-0.257 0.588,-0.24C0.574,-0.222 0.556,-0.208 0.534,-0.196C0.512,-0.184 0.485,-0.178 0.453,-0.178L0.224,-0.178L0.224,-0.299L0.453,-0.299C0.47,-0.299 0.483,-0.304 0.493,-0.315C0.502,-0.325 0.507,-0.338 0.507,-0.354C0.507,-0.371 0.502,-0.384 0.491,-0.393C0.48,-0.403 0.468,-0.407 0.453,-0.407L0.224,-0.407C0.206,-0.407 0.193,-0.402 0.184,-0.391C0.174,-0.381 0.169,-0.368 0.169,-0.352L0.169,-0.175C0.169,-0.158 0.175,-0.145 0.185,-0.135C0.196,-0.126 0.209,-0.121 0.225,-0.121L0.453,-0.121L0.453,-0L0.224,-0C0.206,-0 0.187,-0.003 0.167,-0.009C0.146,-0.015 0.128,-0.025 0.11,-0.039C0.093,-0.053 0.078,-0.071 0.066,-0.094C0.055,-0.116 0.049,-0.143 0.049,-0.175L0.049,-0.353C0.049,-0.371 0.052,-0.39 0.058,-0.41C0.064,-0.43 0.074,-0.449 0.088,-0.467C0.102,-0.484 0.12,-0.499 0.142,-0.51C0.165,-0.522 0.192,-0.528 0.224,-0.528L0.453,-0.528C0.47,-0.528 0.489,-0.525 0.51,-0.519C0.53,-0.512 0.549,-0.502 0.566,-0.489C0.584,-0.475 0.598,-0.457 0.61,-0.434C0.622,-0.412 0.627,-0.385 0.627,-0.353Z" style="fill:rgb(79,79,108);fill-rule:nonzero;"/>
            </g>
            <g transform="matrix(13.1063,0,0,13.1063,435.377,975.218)">
                <path d="M0.54,-0.401L0.318,-0.401L0.318,-0L0.189,-0L0.189,-0.401L0.024,-0.401L0.024,-0.528L0.189,-0.528L0.189,-0.7L0.318,-0.7L0.318,-0.528L0.54,-0.528L0.54,-0.401Z" style="fill:rgb(79,79,108);fill-rule:nonzero;"/>
            </g>
            <g transform="matrix(13.1063,0,0,13.1063,442.762,975.218)">
                <path d="M0.57,-0.178C0.57,-0.156 0.567,-0.137 0.562,-0.119C0.556,-0.102 0.549,-0.087 0.54,-0.073C0.53,-0.06 0.52,-0.049 0.508,-0.04C0.496,-0.031 0.483,-0.023 0.47,-0.017C0.457,-0.011 0.443,-0.007 0.43,-0.004C0.416,-0.001 0.404,-0 0.392,-0L0.048,-0L0.048,-0.127L0.391,-0.127C0.408,-0.127 0.421,-0.131 0.43,-0.14C0.438,-0.149 0.443,-0.162 0.443,-0.178C0.441,-0.212 0.424,-0.229 0.392,-0.229L0.195,-0.229C0.167,-0.229 0.143,-0.234 0.124,-0.244C0.104,-0.253 0.088,-0.266 0.076,-0.28C0.064,-0.295 0.055,-0.311 0.05,-0.328C0.044,-0.345 0.042,-0.36 0.042,-0.375C0.042,-0.403 0.047,-0.427 0.057,-0.447C0.067,-0.466 0.079,-0.482 0.095,-0.494C0.11,-0.506 0.127,-0.514 0.145,-0.52C0.162,-0.525 0.179,-0.528 0.195,-0.528L0.507,-0.528L0.507,-0.401L0.196,-0.401C0.189,-0.401 0.184,-0.4 0.18,-0.399C0.177,-0.397 0.174,-0.395 0.172,-0.393C0.17,-0.39 0.169,-0.388 0.169,-0.385C0.169,-0.382 0.168,-0.38 0.168,-0.377C0.169,-0.372 0.17,-0.368 0.171,-0.365C0.173,-0.362 0.175,-0.36 0.177,-0.358C0.18,-0.357 0.183,-0.356 0.186,-0.356C0.189,-0.356 0.192,-0.356 0.195,-0.356L0.392,-0.356C0.424,-0.356 0.452,-0.35 0.475,-0.338C0.497,-0.327 0.516,-0.312 0.53,-0.294C0.544,-0.276 0.554,-0.257 0.56,-0.236C0.567,-0.215 0.57,-0.196 0.57,-0.178Z" style="fill:rgb(79,79,108);fill-rule:nonzero;"/>
            </g>
            <g transform="matrix(13.1063,0,0,13.1063,397.101,988.325)">
                <path d="M0.634,-0.178L0.577,-0.178L0.576,-0.177C0.576,-0.156 0.573,-0.137 0.568,-0.121C0.562,-0.104 0.555,-0.089 0.546,-0.077C0.538,-0.064 0.527,-0.054 0.516,-0.044C0.504,-0.035 0.492,-0.028 0.479,-0.022C0.467,-0.017 0.454,-0.012 0.441,-0.01C0.428,-0.007 0.416,-0.006 0.405,-0.006L0.232,-0.006C0.202,-0.006 0.176,-0.012 0.155,-0.023C0.134,-0.034 0.116,-0.049 0.102,-0.065C0.088,-0.082 0.078,-0.101 0.072,-0.121C0.065,-0.14 0.061,-0.159 0.061,-0.176L0.061,-0.235C0.061,-0.261 0.064,-0.283 0.072,-0.302C0.079,-0.32 0.089,-0.336 0.101,-0.35C0.087,-0.368 0.076,-0.387 0.07,-0.407C0.064,-0.428 0.061,-0.447 0.061,-0.465C0.061,-0.496 0.066,-0.523 0.078,-0.545C0.089,-0.567 0.103,-0.584 0.121,-0.598C0.138,-0.611 0.156,-0.621 0.177,-0.627C0.197,-0.633 0.215,-0.636 0.232,-0.636L0.519,-0.636L0.519,-0.522L0.232,-0.522C0.224,-0.522 0.216,-0.521 0.209,-0.518C0.202,-0.515 0.196,-0.511 0.191,-0.506C0.186,-0.501 0.182,-0.495 0.179,-0.488C0.177,-0.481 0.175,-0.473 0.176,-0.465C0.176,-0.446 0.181,-0.432 0.191,-0.422C0.202,-0.412 0.215,-0.407 0.232,-0.407L0.405,-0.407L0.405,-0.293L0.232,-0.293C0.215,-0.293 0.201,-0.287 0.191,-0.276C0.181,-0.265 0.176,-0.251 0.176,-0.235L0.176,-0.18C0.176,-0.163 0.181,-0.148 0.192,-0.137C0.202,-0.127 0.216,-0.121 0.232,-0.121L0.404,-0.121C0.422,-0.121 0.436,-0.126 0.446,-0.137C0.456,-0.148 0.461,-0.162 0.461,-0.178C0.461,-0.192 0.464,-0.206 0.469,-0.22C0.474,-0.233 0.481,-0.246 0.491,-0.257C0.5,-0.267 0.512,-0.276 0.527,-0.283C0.541,-0.29 0.557,-0.293 0.576,-0.293L0.634,-0.293L0.634,-0.178Z" style="fill:rgb(79,79,108);fill-rule:nonzero;"/>
            </g>
            <g transform="matrix(13.1063,0,0,13.1063,410.099,988.325)">
                <path d="M0.394,-0.45L0.607,-0.7L0.781,-0.7L0.479,-0.349L0.779,-0L0.606,-0L0.394,-0.248L0.182,-0L0.009,-0L0.308,-0.349L0.008,-0.7L0.18,-0.7L0.394,-0.45Z" style="fill:rgb(79,79,108);fill-rule:nonzero;"/>
            </g>
            <g transform="matrix(13.1063,0,0,13.1063,420.415,988.325)">
                <path d="M0.771,-0.407C0.771,-0.378 0.768,-0.352 0.761,-0.33C0.754,-0.307 0.744,-0.287 0.732,-0.269C0.719,-0.252 0.705,-0.237 0.689,-0.225C0.674,-0.212 0.657,-0.202 0.639,-0.194C0.622,-0.187 0.604,-0.181 0.587,-0.177C0.569,-0.174 0.552,-0.172 0.537,-0.172L0.25,-0.172L0.25,-0.299L0.537,-0.299C0.553,-0.3 0.568,-0.303 0.581,-0.309C0.594,-0.314 0.605,-0.321 0.615,-0.331C0.624,-0.34 0.632,-0.351 0.637,-0.364C0.642,-0.376 0.645,-0.391 0.645,-0.407L0.645,-0.465C0.643,-0.481 0.639,-0.495 0.634,-0.509C0.629,-0.522 0.622,-0.534 0.613,-0.543C0.604,-0.552 0.593,-0.56 0.581,-0.565C0.568,-0.571 0.553,-0.573 0.537,-0.573L0.25,-0.573C0.234,-0.573 0.221,-0.569 0.212,-0.56C0.203,-0.551 0.199,-0.539 0.199,-0.522L0.199,-0L0.072,-0L0.072,-0.522C0.072,-0.555 0.078,-0.582 0.09,-0.605C0.101,-0.628 0.116,-0.646 0.134,-0.66C0.152,-0.674 0.171,-0.684 0.192,-0.691C0.213,-0.697 0.232,-0.7 0.25,-0.7L0.537,-0.7C0.565,-0.7 0.591,-0.697 0.614,-0.689C0.637,-0.682 0.657,-0.672 0.674,-0.66C0.691,-0.648 0.706,-0.634 0.719,-0.618C0.731,-0.602 0.741,-0.585 0.749,-0.568C0.757,-0.55 0.763,-0.533 0.766,-0.515C0.77,-0.497 0.771,-0.48 0.771,-0.465L0.771,-0.407Z" style="fill:rgb(79,79,108);fill-rule:nonzero;"/>
            </g>
        </g>
    </g>
</svg>
