<?xml version="1.0" encoding="UTF-8" standalone="no"?>
<!DOCTYPE svg PUBLIC "-//W3C//DTD SVG 1.1//EN" "http://www.w3.org/Graphics/SVG/1.1/DTD/svg11.dtd">
<svg width="100%" height="100%" viewBox="0 0 152 202" version="1.1" xmlns="http://www.w3.org/2000/svg" xmlns:xlink="http://www.w3.org/1999/xlink" xml:space="preserve" xmlns:serif="http://www.serif.com/" style="fill-rule:evenodd;clip-rule:evenodd;stroke-linejoin:round;stroke-miterlimit:2;">
    <g transform="matrix(1,0,0,1,-642.397,-777.178)">
        <g transform="matrix(0.211077,0,0,0.211077,557.175,757.547)">
            <path d="M832.996,759.127C739.836,733.069 693.144,678.534 698.297,603.173C704.764,508.591 807.335,466.158 774.15,352.68C797.708,366.103 817.849,384.537 832.996,410.295C854.359,332.907 819.076,264.55 764.812,199.218C931.817,282.898 1024.14,390.271 992.626,536.928C1025.32,513.077 1042.52,474.963 1047.17,425.317C1104.07,588.312 1047.17,712.503 941.288,759.127C871.825,707.679 862.911,600.561 888.399,536.928C812.026,600.561 787.8,673.59 832.996,759.127Z" style="fill:rgb(30,30,48);"/>
        </g>
        <g transform="matrix(4.54328,0,0,4.54328,-1145.31,-3372.43)">
            <text x="404.768px" y="946.913px" style="font-family:'Audiowide-Regular', 'Audiowide';font-size:13.106px;fill:rgb(79,79,108);">x2</text>
        </g>
        <g transform="matrix(1.88024,0,0,1.88024,-52.9714,-879.813)">
            <text x="397.101px" y="975.218px" style="font-family:'Audiowide-Regular', 'Audiowide';font-size:13.106px;fill:rgb(79,79,108);">Tick<tspan x="426.814px " y="975.218px ">e</tspan>ts</text>
            <text x="397.101px" y="988.325px" style="font-family:'Audiowide-Regular', 'Audiowide';font-size:13.106px;fill:rgb(79,79,108);">XP</text>
        </g>
        <g transform="matrix(0.496304,0,0,0.496304,444.102,339.173)">
            <text x="397.749px" y="906.316px" style="font-family:'Audiowide-Regular', 'Audiowide';font-size:31.669px;fill:rgb(79,79,108);">3 week s<tspan x="552.012px 569.764px 586.974px 607.541px " y="906.316px 906.316px 906.316px 906.316px ">trea</tspan>k</text>
            <text x="397.749px" y="937.985px" style="font-family:'Audiowide-Regular', 'Audiowide';font-size:31.669px;fill:rgb(79,79,108);">rew<tspan x="463.886px " y="937.985px ">a</tspan>rds:</text>
        </g>
    </g>
</svg>
