<?xml version="1.0" encoding="UTF-8" standalone="no"?>
<!DOCTYPE svg PUBLIC "-//W3C//DTD SVG 1.1//EN" "http://www.w3.org/Graphics/SVG/1.1/DTD/svg11.dtd">
<svg width="100%" height="100%" viewBox="0 0 36 36" version="1.1" xmlns="http://www.w3.org/2000/svg" xmlns:xlink="http://www.w3.org/1999/xlink" xml:space="preserve" xmlns:serif="http://www.serif.com/" style="fill-rule:evenodd;clip-rule:evenodd;stroke-linejoin:round;stroke-miterlimit:2;">
    <g transform="matrix(1,0,0,1,-405.299,-132.442)">
        <path d="M423.246,132.442C433.152,132.442 441.193,140.483 441.193,150.389C441.193,160.294 433.152,168.336 423.246,168.336C413.341,168.336 405.299,160.294 405.299,150.389C405.299,140.483 413.341,132.442 423.246,132.442ZM423.246,136.055C431.157,136.055 437.58,142.478 437.58,150.389C437.58,158.3 431.157,164.723 423.246,164.723C415.335,164.723 408.912,158.3 408.912,150.389C408.912,142.478 415.335,136.055 423.246,136.055ZM420.996,150.389L415.736,145.129C415.107,144.499 415.107,143.479 415.736,142.85C415.737,142.849 415.738,142.848 415.738,142.848C416.368,142.218 417.388,142.218 418.017,142.848L423.277,148.108L428.537,142.848C429.167,142.218 430.187,142.218 430.816,142.848C430.817,142.848 430.818,142.849 430.818,142.85C431.448,143.479 431.448,144.499 430.818,145.129L425.558,150.389L430.818,155.649C431.448,156.278 431.448,157.299 430.818,157.928C430.818,157.929 430.817,157.929 430.816,157.93C430.187,158.559 429.167,158.559 428.537,157.93L423.277,152.67L418.017,157.93C417.388,158.559 416.368,158.559 415.738,157.93C415.738,157.929 415.737,157.929 415.736,157.928C415.107,157.299 415.107,156.278 415.736,155.649L420.996,150.389Z" style="fill:rgb(50,50,67);"/>
    </g>
</svg>
